<?xml version="1.0" encoding="utf-8"?>
<!-- Generator: Adobe Illustrator 17.1.0, SVG Export Plug-In . SVG Version: 6.00 Build 0)  -->
<!DOCTYPE svg PUBLIC "-//W3C//DTD SVG 1.1//EN" "http://www.w3.org/Graphics/SVG/1.1/DTD/svg11.dtd">
<svg version="1.1" id="v4_1_" xmlns="http://www.w3.org/2000/svg" xmlns:xlink="http://www.w3.org/1999/xlink" x="0px" y="0px"
	 viewBox="0 0 796.2 146.6" enable-background="new 0 0 796.2 146.6" xml:space="preserve">
<g id="Shape_3_copy_6">
	<g>
		<path fill-rule="evenodd" clip-rule="evenodd" fill="#FFFFFF" d="M281.5,36.1c-0.9-0.1-2.3-0.1-4-0.1c-1.8,0-3.2,0-4.2,0.1
			c-1,0.1-1.8,0.3-2.3,0.5c-0.5,0.3-0.9,0.6-1.1,1c-0.2,0.4-0.3,1-0.5,1.6l-13.1,57h-0.1l-14.1-56.8c-0.2-0.8-0.4-1.4-0.6-1.8
			c-0.3-0.5-0.7-0.8-1.3-1.1c-0.6-0.2-1.4-0.4-2.5-0.5c-1.1-0.1-2.6-0.1-4.4-0.1c-1.7,0-3.1,0-4.2,0.1c-1,0.1-1.9,0.3-2.5,0.5
			c-0.6,0.3-1,0.6-1.3,1.1c-0.3,0.5-0.5,1.1-0.6,1.8l-13.6,56.8H211l-13.1-57.2c-0.1-0.7-0.3-1.3-0.5-1.7c-0.2-0.4-0.6-0.7-1.1-0.9
			c-0.5-0.2-1.3-0.3-2.4-0.4c-1.1-0.1-2.5-0.1-4.3-0.1c-2,0-3.5,0-4.6,0.1c-1.1,0.1-1.9,0.4-2.4,0.8c-0.5,0.4-0.7,1-0.7,1.8
			c0,0.8,0.2,1.9,0.6,3.3l17,65.1c0.2,0.9,0.5,1.7,0.9,2.2c0.3,0.6,0.9,1,1.7,1.3c0.8,0.3,1.8,0.5,3.1,0.6c1.3,0.1,3.1,0.1,5.3,0.1
			c2.1,0,3.8,0,5.1-0.1c1.3-0.1,2.3-0.3,3.1-0.6c0.8-0.3,1.3-0.7,1.6-1.3c0.3-0.6,0.6-1.3,0.8-2.2l11.3-47.3h0.1l12,47.3
			c0.2,0.9,0.5,1.7,0.8,2.2c0.3,0.6,0.9,1,1.7,1.3c0.8,0.3,1.8,0.5,3.1,0.6c1.3,0.1,3.1,0.1,5.3,0.1c2,0,3.6,0,4.9-0.1
			c1.3-0.1,2.3-0.3,3.1-0.6c0.8-0.3,1.4-0.7,1.8-1.3c0.4-0.6,0.7-1.3,1-2.2l17.2-65c0.3-1.4,0.5-2.5,0.6-3.4
			c0.1-0.8-0.1-1.5-0.5-1.9C283.1,36.5,282.4,36.2,281.5,36.1z M335.3,60.7c-1.5-2-3.4-3.6-5.8-4.7c-2.4-1.2-5.4-1.7-8.9-1.7
			c-2.8,0-5.5,0.6-8.1,1.8c-2.6,1.2-5.2,3-7.7,5.5V38.4c0-0.4-0.1-0.7-0.3-1c-0.2-0.3-0.6-0.6-1.2-0.8c-0.6-0.2-1.3-0.4-2.2-0.5
			c-0.9-0.1-2.1-0.2-3.5-0.2c-1.4,0-2.6,0.1-3.5,0.2c-0.9,0.1-1.7,0.3-2.2,0.5c-0.6,0.2-1,0.5-1.2,0.8c-0.2,0.3-0.3,0.7-0.3,1V109
			c0,0.4,0.1,0.7,0.3,1c0.2,0.3,0.6,0.5,1.2,0.7c0.6,0.2,1.3,0.3,2.2,0.4c0.9,0.1,2.1,0.1,3.5,0.1c1.4,0,2.6,0,3.5-0.1
			c0.9-0.1,1.7-0.2,2.2-0.4c0.6-0.2,1-0.4,1.2-0.7c0.2-0.3,0.3-0.6,0.3-1V74.8c2-2.6,4-4.5,5.9-5.9c1.9-1.3,3.8-2,5.6-2
			c1.5,0,2.7,0.3,3.8,0.8c1.1,0.6,2,1.3,2.7,2.4c0.7,1,1.2,2.2,1.6,3.7c0.4,1.4,0.5,3.4,0.5,5.9V109c0,0.4,0.1,0.7,0.3,1
			c0.2,0.3,0.6,0.5,1.2,0.7c0.5,0.2,1.3,0.3,2.2,0.4c0.9,0.1,2.1,0.1,3.6,0.1c1.4,0,2.6,0,3.5-0.1c0.9-0.1,1.7-0.2,2.2-0.4
			c0.5-0.2,0.9-0.4,1.2-0.7c0.2-0.3,0.3-0.6,0.3-1V77.5c0-3.8-0.3-7-1-9.7C337.8,65.1,336.7,62.7,335.3,60.7z M391.8,61.5
			c-2-2.2-4.5-4-7.5-5.3c-3.1-1.3-6.7-1.9-11.1-1.9c-4.1,0-7.7,0.7-11,2c-3.3,1.3-6,3.3-8.3,5.9c-2.3,2.6-4,5.7-5.2,9.3
			c-1.2,3.7-1.8,7.8-1.8,12.4c0,4.8,0.6,9,1.7,12.6c1.1,3.6,2.9,6.5,5.2,8.9c2.3,2.3,5.2,4.1,8.6,5.2c3.4,1.2,7.5,1.7,12,1.7
			c2.5,0,4.9-0.2,7.2-0.5c2.2-0.3,4.2-0.7,5.9-1.2c1.7-0.4,3.2-0.9,4.3-1.4c1.1-0.5,1.8-0.8,2.1-1.1c0.2-0.3,0.5-0.5,0.6-0.8
			c0.2-0.3,0.3-0.6,0.3-1.1c0.1-0.4,0.1-0.9,0.2-1.5c0-0.6,0.1-1.3,0.1-2.2c0-1,0-1.8-0.1-2.4c-0.1-0.6-0.2-1.1-0.3-1.5
			c-0.2-0.3-0.3-0.6-0.6-0.7c-0.2-0.1-0.5-0.2-0.9-0.2c-0.6,0-1.3,0.2-2.3,0.5c-0.9,0.4-2.1,0.8-3.5,1.2c-1.4,0.4-3.1,0.8-5,1.2
			c-1.9,0.4-4.2,0.5-6.7,0.5c-2.5,0-4.6-0.3-6.4-1c-1.8-0.7-3.3-1.6-4.4-2.9c-1.1-1.2-2-2.8-2.5-4.6c-0.5-1.8-0.8-3.8-0.8-6h31.4
			c1.4,0,2.5-0.4,3.3-1.3c0.8-0.8,1.2-2.2,1.2-3.9v-2.3c0-3.6-0.5-7-1.4-10C395.3,66.4,393.8,63.7,391.8,61.5z M361.7,77.6
			c0.1-1.8,0.4-3.5,0.8-5.1c0.5-1.6,1.2-3,2.1-4.2c0.9-1.2,2-2.1,3.4-2.8c1.4-0.7,3-1,4.8-1c3.7,0,6.4,1.2,8.1,3.5
			c1.8,2.3,2.6,5.5,2.5,9.6H361.7z M450.8,60.7c-1.5-2-3.4-3.5-5.8-4.7c-2.4-1.2-5.4-1.7-8.9-1.7c-3.2,0-6.3,0.8-9.2,2.3
			c-2.9,1.5-5.8,3.8-8.7,6.9v-5.9c0-0.4-0.1-0.7-0.3-1c-0.2-0.3-0.5-0.5-1-0.7c-0.4-0.2-1.1-0.3-1.9-0.4c-0.8-0.1-1.8-0.1-3.1-0.1
			c-1.2,0-2.2,0-3,0.1c-0.8,0.1-1.4,0.2-1.9,0.4c-0.5,0.2-0.8,0.4-1,0.7c-0.2,0.3-0.3,0.6-0.3,1V109c0,0.4,0.1,0.7,0.3,1
			c0.2,0.3,0.6,0.5,1.2,0.7c0.6,0.2,1.3,0.3,2.2,0.4c0.9,0.1,2.1,0.1,3.5,0.1c1.4,0,2.6,0,3.5-0.1c0.9-0.1,1.7-0.2,2.2-0.4
			c0.6-0.2,1-0.4,1.2-0.7c0.2-0.3,0.3-0.6,0.3-1V74.8c2-2.6,4-4.5,5.9-5.9c1.9-1.3,3.8-2,5.6-2c1.5,0,2.7,0.3,3.8,0.8
			c1.1,0.6,2,1.3,2.7,2.4c0.7,1,1.2,2.2,1.6,3.7c0.4,1.4,0.5,3.4,0.5,5.9V109c0,0.4,0.1,0.7,0.3,1c0.2,0.3,0.6,0.5,1.2,0.7
			c0.5,0.2,1.3,0.3,2.2,0.4c0.9,0.1,2.1,0.1,3.6,0.1c1.4,0,2.6,0,3.5-0.1c0.9-0.1,1.7-0.2,2.2-0.4c0.5-0.2,0.9-0.4,1.2-0.7
			c0.2-0.3,0.3-0.6,0.3-1V77.2c0-3.7-0.3-6.9-1-9.6C453.3,65,452.3,62.7,450.8,60.7z M497.4,36.6c-0.6-0.2-1.3-0.3-2.3-0.5
			c-1-0.1-2.2-0.2-3.7-0.2c-1.5,0-2.7,0.1-3.6,0.2c-1,0.1-1.7,0.3-2.3,0.5c-0.6,0.2-1,0.4-1.3,0.8c-0.3,0.3-0.4,0.7-0.4,1v70.5
			c0,0.4,0.1,0.7,0.4,1c0.2,0.3,0.7,0.6,1.2,0.8c0.6,0.2,1.4,0.3,2.3,0.5c1,0.1,2.2,0.2,3.7,0.2c1.5,0,2.7-0.1,3.7-0.2
			c1-0.1,1.7-0.3,2.3-0.5c0.6-0.2,1-0.4,1.2-0.8c0.2-0.3,0.4-0.7,0.4-1V38.4c0-0.4-0.1-0.7-0.4-1C498.4,37.1,498,36.8,497.4,36.6z
			 M625.4,38.8c0.1-0.8-0.1-1.5-0.5-1.9c-0.4-0.4-1.1-0.7-2.1-0.8c-0.9-0.1-2.3-0.1-4-0.1c-1.8,0-3.2,0-4.2,0.1
			c-1,0.1-1.8,0.3-2.3,0.5c-0.5,0.3-0.9,0.6-1.1,1c-0.2,0.4-0.3,1-0.5,1.6l-13.1,57h-0.1l-14.1-56.8c-0.2-0.8-0.4-1.4-0.6-1.8
			c-0.3-0.5-0.7-0.8-1.3-1.1c-0.6-0.2-1.4-0.4-2.5-0.5c-1.1-0.1-2.6-0.1-4.4-0.1c-1.7,0-3.1,0-4.2,0.1c-1,0.1-1.9,0.3-2.5,0.5
			c-0.6,0.3-1,0.6-1.3,1.1c-0.2,0.5-0.5,1.1-0.6,1.8l-13.6,56.8h-0.1l-13.1-57.2c-0.1-0.7-0.3-1.3-0.5-1.7s-0.6-0.7-1.1-0.9
			c-0.5-0.2-1.3-0.3-2.4-0.4c-1.1-0.1-2.5-0.1-4.3-0.1c-2,0-3.5,0-4.6,0.1c-1.1,0.1-1.9,0.4-2.4,0.8c-0.5,0.4-0.7,1-0.7,1.8
			c0,0.8,0.2,1.9,0.6,3.3l17,65.1c0.2,0.9,0.5,1.7,0.9,2.2c0.3,0.6,0.9,1,1.7,1.3c0.8,0.3,1.8,0.5,3.1,0.6c1.3,0.1,3.1,0.1,5.3,0.1
			c2.1,0,3.8,0,5.1-0.1c1.3-0.1,2.3-0.3,3.1-0.6c0.8-0.3,1.3-0.7,1.6-1.3c0.3-0.6,0.6-1.3,0.8-2.2l11.3-47.3h0.1l12,47.3
			c0.2,0.9,0.5,1.7,0.8,2.2c0.3,0.6,0.9,1,1.7,1.3c0.8,0.3,1.8,0.5,3.1,0.6c1.3,0.1,3.1,0.1,5.3,0.1c2,0,3.6,0,4.9-0.1
			c1.3-0.1,2.3-0.3,3.1-0.6c0.8-0.3,1.4-0.7,1.8-1.3c0.4-0.6,0.7-1.3,1-2.2l17.2-65C625.1,40.7,625.3,39.6,625.4,38.8z M671.5,61.7
			c-2.2-2.4-5-4.3-8.4-5.5c-3.4-1.2-7.4-1.9-12-1.9c-4.7,0-8.9,0.7-12.4,2.1c-3.5,1.4-6.5,3.4-8.8,6c-2.3,2.6-4.1,5.7-5.3,9.3
			c-1.2,3.6-1.8,7.6-1.8,12c0,4.5,0.5,8.6,1.6,12.1c1.1,3.5,2.7,6.5,5,8.9c2.2,2.4,5,4.3,8.4,5.5c3.4,1.3,7.4,1.9,12,1.9
			c4.7,0,8.9-0.7,12.4-2.1c3.5-1.4,6.5-3.4,8.8-6.1c2.3-2.6,4.1-5.7,5.3-9.3c1.2-3.6,1.7-7.6,1.7-12c0-4.6-0.5-8.6-1.6-12.2
			C675.3,67.1,673.7,64.1,671.5,61.7z M662.3,90.7c-0.5,2.1-1.3,4-2.3,5.5c-1,1.5-2.4,2.6-4,3.4c-1.6,0.8-3.5,1.2-5.7,1.2
			c-2.4,0-4.4-0.4-6-1.3c-1.6-0.9-2.9-2.1-3.8-3.7c-0.9-1.6-1.6-3.4-2.1-5.6c-0.4-2.1-0.6-4.5-0.6-7c0-2.7,0.3-5.2,0.8-7.3
			c0.5-2.1,1.3-4,2.3-5.5c1-1.5,2.4-2.7,4-3.5c1.6-0.8,3.5-1.2,5.7-1.2c2.4,0,4.4,0.4,6,1.3c1.6,0.9,2.9,2.1,3.8,3.7
			c1,1.6,1.6,3.4,2.1,5.6c0.4,2.1,0.6,4.5,0.6,7C663.1,86.1,662.8,88.5,662.3,90.7z M718.6,57.3c-0.1-0.4-0.2-0.7-0.3-1
			c-0.1-0.2-0.2-0.4-0.5-0.6c-0.2-0.2-0.5-0.4-1-0.5c-0.5-0.2-1-0.3-1.6-0.5c-0.6-0.1-1.2-0.2-1.8-0.3c-0.6-0.1-1.1-0.1-1.6-0.1
			c-1.1,0-2.2,0.1-3.2,0.4c-1.1,0.3-2.2,0.8-3.2,1.5c-1.1,0.7-2.2,1.7-3.4,3c-1.2,1.2-2.5,2.8-3.8,4.8v-6.4c0-0.4-0.1-0.7-0.3-1
			c-0.2-0.3-0.5-0.5-1-0.7c-0.4-0.2-1.1-0.3-1.9-0.4c-0.8-0.1-1.8-0.1-3.1-0.1c-1.2,0-2.2,0-3,0.1c-0.8,0.1-1.4,0.2-1.9,0.4
			c-0.5,0.2-0.8,0.4-1,0.7c-0.2,0.3-0.3,0.6-0.3,1V109c0,0.4,0.1,0.7,0.3,1c0.2,0.3,0.6,0.5,1.2,0.7c0.6,0.2,1.3,0.3,2.2,0.4
			c0.9,0.1,2.1,0.1,3.5,0.1s2.6,0,3.5-0.1c0.9-0.1,1.7-0.2,2.2-0.4c0.6-0.2,1-0.4,1.2-0.7c0.2-0.3,0.3-0.6,0.3-1V77
			c1.1-1.7,2.1-3.1,3-4.3c0.9-1.2,1.8-2.1,2.7-2.8c0.9-0.7,1.7-1.2,2.5-1.5c0.8-0.3,1.6-0.5,2.4-0.5c0.7,0,1.3,0.1,1.9,0.2
			c0.6,0.1,1.1,0.3,1.6,0.4c0.5,0.2,0.9,0.3,1.3,0.4c0.4,0.1,0.7,0.2,1,0.2c0.4,0,0.7-0.1,1-0.3c0.2-0.2,0.5-0.5,0.6-1
			c0.2-0.5,0.3-1.2,0.3-2.1c0.1-0.9,0.1-2,0.1-3.4c0-1.4,0-2.5-0.1-3.3C718.8,58.3,718.7,57.7,718.6,57.3z M773.6,107.6
			c-0.2-0.6-0.5-1.2-1-2l-17.4-26.9l15.1-17.1c0.6-0.7,1-1.4,1.3-2.1c0.3-0.7,0.4-1.3,0.4-1.8c0-0.4-0.1-0.8-0.3-1.1
			c-0.2-0.3-0.6-0.5-1.2-0.7c-0.6-0.2-1.4-0.3-2.4-0.4c-1-0.1-2.2-0.1-3.6-0.1c-1.5,0-2.7,0-3.6,0.1c-0.9,0.1-1.7,0.2-2.4,0.4
			c-0.6,0.2-1.1,0.5-1.5,0.8c-0.4,0.3-0.7,0.7-1,1.2l-15.2,20.5V38.4c0-0.4-0.1-0.7-0.3-1c-0.2-0.3-0.6-0.6-1.2-0.8
			c-0.6-0.2-1.3-0.4-2.2-0.5c-0.9-0.1-2.1-0.2-3.5-0.2s-2.6,0.1-3.5,0.2c-0.9,0.1-1.7,0.3-2.2,0.5c-0.6,0.2-1,0.5-1.2,0.8
			c-0.2,0.3-0.3,0.7-0.3,1V109c0,0.4,0.1,0.7,0.3,1c0.2,0.3,0.6,0.5,1.2,0.7c0.6,0.2,1.3,0.3,2.2,0.4c0.9,0.1,2.1,0.1,3.5,0.1
			s2.6,0,3.5-0.1c0.9-0.1,1.7-0.2,2.2-0.4c0.6-0.2,1-0.4,1.2-0.7c0.2-0.3,0.3-0.6,0.3-1V81.8l17.2,27.1c0.3,0.5,0.6,0.9,0.9,1.2
			c0.3,0.3,0.8,0.5,1.5,0.7c0.6,0.2,1.4,0.3,2.4,0.4c1,0.1,2.3,0.1,3.8,0.1c1.5,0,2.8,0,3.8-0.1c1-0.1,1.7-0.2,2.3-0.4
			c0.6-0.2,0.9-0.4,1.2-0.7c0.2-0.3,0.3-0.6,0.3-1C773.9,108.6,773.8,108.1,773.6,107.6z"/>
	</g>
</g>
<g id="_xAE_">
	<g>
		<path fill="#FFFFFF" d="M793.3,53.7c-1.9,1.9-4.2,2.9-7,2.9c-2.7,0-5-1-7-2.9c-1.9-1.9-2.9-4.2-2.9-7c0-2.7,1-5,2.9-6.9
			c1.9-1.9,4.2-2.9,6.9-2.9c2.7,0,5,1,7,2.9c1.9,1.9,2.9,4.2,2.9,6.9C796.2,49.4,795.3,51.7,793.3,53.7z M780.4,40.7
			c-1.6,1.7-2.5,3.6-2.5,6c0,2.4,0.8,4.4,2.5,6c1.6,1.7,3.6,2.5,6,2.5s4.3-0.8,6-2.5c1.6-1.7,2.5-3.7,2.5-6c0-2.3-0.8-4.3-2.5-6
			c-1.7-1.7-3.7-2.5-6-2.5C784,38.2,782,39.1,780.4,40.7z M786.2,41.3c1.3,0,2.3,0.1,2.9,0.4c1.1,0.5,1.7,1.4,1.7,2.7
			c0,1-0.4,1.7-1.1,2.1c-0.4,0.2-0.9,0.4-1.6,0.5c0.8,0.1,1.5,0.5,1.9,1.1c0.4,0.6,0.6,1.1,0.6,1.7v0.8c0,0.2,0,0.5,0,0.8
			c0,0.3,0,0.5,0.1,0.6l0.1,0.1H789c0,0,0-0.1,0-0.1c0,0,0-0.1,0-0.1l0-0.3v-0.9c0-1.2-0.3-2.1-1-2.5c-0.4-0.2-1.1-0.3-2.1-0.3h-1.5
			V52h-1.9V41.3H786.2z M788.2,43c-0.5-0.3-1.2-0.4-2.3-0.4h-1.6v3.9h1.7c0.8,0,1.4-0.1,1.8-0.2c0.7-0.3,1.1-0.9,1.1-1.7
			C789,43.8,788.7,43.2,788.2,43z"/>
	</g>
</g>
<g id="_x33__1_">
	<g id="Shape_22">
		<g>
			<path fill-rule="evenodd" clip-rule="evenodd" fill="#FFFFFF" d="M42.7,56.8h53c2.2,0,4-1.8,4-4v-4.6c0-2.2-1.8-4-4-4h-53
				c-2.2,0-4,1.8-4,4v4.6C38.7,55,40.5,56.8,42.7,56.8z M95.7,90h-53c-2.2,0-4,1.8-4,4v4.6c0,2.2,1.8,4,4,4h53c2.2,0,4-1.8,4-4V94
				C99.7,91.8,97.9,90,95.7,90z M108.7,67h-53c-2.2,0-4,1.8-4,4v4.6c0,2.2,1.8,4,4,4h53c2.2,0,4-1.8,4-4v-4.6
				C112.8,68.8,111,67,108.7,67z M73.3,0C32.8,0,0,32.8,0,73.3c0,40.5,32.8,73.3,73.3,73.3c40.5,0,73.3-32.8,73.3-73.3
				C146.6,32.8,113.8,0,73.3,0z M73.3,134.5c-33.8,0-61.2-27.4-61.2-61.2c0-33.8,27.4-61.2,61.2-61.2c33.8,0,61.2,27.4,61.2,61.2
				C134.5,107.1,107.1,134.5,73.3,134.5z"/>
		</g>
	</g>
</g>
</svg>
